<svg id="visual" viewBox="0 0 900 150" width="900" height="150" xmlns="http://www.w3.org/2000/svg" xmlns:xlink="http://www.w3.org/1999/xlink" version="1.1"><rect x="0" y="0" width="900" height="150" fill="#202731"></rect><path d="M0 34L15 37.7C30 41.3 60 48.7 90 47.7C120 46.7 150 37.3 180 37.5C210 37.7 240 47.3 270 53.8C300 60.3 330 63.7 360 57.8C390 52 420 37 450 37.5C480 38 510 54 540 54.8C570 55.7 600 41.3 630 38.5C660 35.7 690 44.3 720 44.8C750 45.3 780 37.7 810 32.3C840 27 870 24 885 22.5L900 21L900 151L885 151C870 151 840 151 810 151C780 151 750 151 720 151C690 151 660 151 630 151C600 151 570 151 540 151C510 151 480 151 450 151C420 151 390 151 360 151C330 151 300 151 270 151C240 151 210 151 180 151C150 151 120 151 90 151C60 151 30 151 15 151L0 151Z" fill="#f2a81d"></path><path d="M0 49L15 48.7C30 48.3 60 47.7 90 50C120 52.3 150 57.7 180 61.3C210 65 240 67 270 67.7C300 68.3 330 67.7 360 70.5C390 73.3 420 79.7 450 77C480 74.3 510 62.7 540 57.5C570 52.3 600 53.7 630 55.5C660 57.3 690 59.7 720 61.7C750 63.7 780 65.3 810 63.2C840 61 870 55 885 52L900 49L900 151L885 151C870 151 840 151 810 151C780 151 750 151 720 151C690 151 660 151 630 151C600 151 570 151 540 151C510 151 480 151 450 151C420 151 390 151 360 151C330 151 300 151 270 151C240 151 210 151 180 151C150 151 120 151 90 151C60 151 30 151 15 151L0 151Z" fill="#f49d15"></path><path d="M0 104L15 97.3C30 90.7 60 77.3 90 73.7C120 70 150 76 180 76.2C210 76.3 240 70.7 270 67.5C300 64.3 330 63.7 360 66.8C390 70 420 77 450 81C480 85 510 86 540 83.7C570 81.3 600 75.7 630 73.3C660 71 690 72 720 75.5C750 79 780 85 810 86C840 87 870 83 885 81L900 79L900 151L885 151C870 151 840 151 810 151C780 151 750 151 720 151C690 151 660 151 630 151C600 151 570 151 540 151C510 151 480 151 450 151C420 151 390 151 360 151C330 151 300 151 270 151C240 151 210 151 180 151C150 151 120 151 90 151C60 151 30 151 15 151L0 151Z" fill="#f5910f"></path><path d="M0 92L15 92.3C30 92.7 60 93.3 90 94C120 94.7 150 95.3 180 98.2C210 101 240 106 270 108.5C300 111 330 111 360 108.7C390 106.3 420 101.7 450 99.5C480 97.3 510 97.7 540 99.5C570 101.3 600 104.7 630 104.3C660 104 690 100 720 100.7C750 101.3 780 106.7 810 105.7C840 104.7 870 97.3 885 93.7L900 90L900 151L885 151C870 151 840 151 810 151C780 151 750 151 720 151C690 151 660 151 630 151C600 151 570 151 540 151C510 151 480 151 450 151C420 151 390 151 360 151C330 151 300 151 270 151C240 151 210 151 180 151C150 151 120 151 90 151C60 151 30 151 15 151L0 151Z" fill="#f6840d"></path><path d="M0 137L15 136.3C30 135.7 60 134.3 90 132.3C120 130.3 150 127.7 180 127.8C210 128 240 131 270 131.2C300 131.3 330 128.7 360 124.5C390 120.3 420 114.7 450 112.8C480 111 510 113 540 115.8C570 118.7 600 122.3 630 124.5C660 126.7 690 127.3 720 125C750 122.7 780 117.3 810 115.8C840 114.3 870 116.7 885 117.8L900 119L900 151L885 151C870 151 840 151 810 151C780 151 750 151 720 151C690 151 660 151 630 151C600 151 570 151 540 151C510 151 480 151 450 151C420 151 390 151 360 151C330 151 300 151 270 151C240 151 210 151 180 151C150 151 120 151 90 151C60 151 30 151 15 151L0 151Z" fill="#f7770f"></path></svg>