<svg id="visual" viewBox="0 0 900 150" width="900" height="150" xmlns="http://www.w3.org/2000/svg" xmlns:xlink="http://www.w3.org/1999/xlink" version="1.1"><rect x="0" y="0" width="900" height="150" fill="#202731"></rect><path d="M0 39L15 35.3C30 31.7 60 24.3 90 25C120 25.7 150 34.3 180 41.8C210 49.3 240 55.7 270 51.7C300 47.7 330 33.3 360 28.8C390 24.3 420 29.7 450 31.7C480 33.7 510 32.3 540 35.7C570 39 600 47 630 47.8C660 48.7 690 42.3 720 36.5C750 30.7 780 25.3 810 28.2C840 31 870 42 885 47.5L900 53L900 151L885 151C870 151 840 151 810 151C780 151 750 151 720 151C690 151 660 151 630 151C600 151 570 151 540 151C510 151 480 151 450 151C420 151 390 151 360 151C330 151 300 151 270 151C240 151 210 151 180 151C150 151 120 151 90 151C60 151 30 151 15 151L0 151Z" fill="#f2a81d"></path><path d="M0 66L15 66C30 66 60 66 90 67C120 68 150 70 180 68.5C210 67 240 62 270 57.3C300 52.7 330 48.3 360 48.8C390 49.3 420 54.7 450 57.3C480 60 510 60 540 57.8C570 55.7 600 51.3 630 50C660 48.7 690 50.3 720 55.3C750 60.3 780 68.7 810 72.8C840 77 870 77 885 77L900 77L900 151L885 151C870 151 840 151 810 151C780 151 750 151 720 151C690 151 660 151 630 151C600 151 570 151 540 151C510 151 480 151 450 151C420 151 390 151 360 151C330 151 300 151 270 151C240 151 210 151 180 151C150 151 120 151 90 151C60 151 30 151 15 151L0 151Z" fill="#f49d15"></path><path d="M0 81L15 83C30 85 60 89 90 90.2C120 91.3 150 89.7 180 86.7C210 83.7 240 79.3 270 76.5C300 73.7 330 72.3 360 76.3C390 80.3 420 89.7 450 93.7C480 97.7 510 96.3 540 96.3C570 96.3 600 97.7 630 99.2C660 100.7 690 102.3 720 100.3C750 98.3 780 92.7 810 90.5C840 88.3 870 89.7 885 90.3L900 91L900 151L885 151C870 151 840 151 810 151C780 151 750 151 720 151C690 151 660 151 630 151C600 151 570 151 540 151C510 151 480 151 450 151C420 151 390 151 360 151C330 151 300 151 270 151C240 151 210 151 180 151C150 151 120 151 90 151C60 151 30 151 15 151L0 151Z" fill="#f5910f"></path><path d="M0 122L15 116.3C30 110.7 60 99.3 90 96C120 92.7 150 97.3 180 100.2C210 103 240 104 270 102C300 100 330 95 360 94C390 93 420 96 450 97.3C480 98.7 510 98.3 540 97.8C570 97.3 600 96.7 630 100.2C660 103.7 690 111.3 720 113.3C750 115.3 780 111.7 810 109.3C840 107 870 106 885 105.5L900 105L900 151L885 151C870 151 840 151 810 151C780 151 750 151 720 151C690 151 660 151 630 151C600 151 570 151 540 151C510 151 480 151 450 151C420 151 390 151 360 151C330 151 300 151 270 151C240 151 210 151 180 151C150 151 120 151 90 151C60 151 30 151 15 151L0 151Z" fill="#f6840d"></path><path d="M0 119L15 120.3C30 121.7 60 124.3 90 126.7C120 129 150 131 180 132.7C210 134.3 240 135.7 270 133.5C300 131.3 330 125.7 360 122.7C390 119.7 420 119.3 450 118.2C480 117 510 115 540 117.3C570 119.7 600 126.3 630 129.2C660 132 690 131 720 131.5C750 132 780 134 810 134.5C840 135 870 134 885 133.5L900 133L900 151L885 151C870 151 840 151 810 151C780 151 750 151 720 151C690 151 660 151 630 151C600 151 570 151 540 151C510 151 480 151 450 151C420 151 390 151 360 151C330 151 300 151 270 151C240 151 210 151 180 151C150 151 120 151 90 151C60 151 30 151 15 151L0 151Z" fill="#f7770f"></path></svg>